<svg width="36" height="36" viewBox="0 0 36 36" fill="none" xmlns="http://www.w3.org/2000/svg">
<path fill-rule="evenodd" clip-rule="evenodd" d="M17.8936 7.875C19.7575 7.875 21.2686 6.36396 21.2686 4.5C21.2686 2.63604 19.7575 1.125 17.8936 1.125C16.0296 1.125 14.5186 2.63604 14.5186 4.5C14.5186 6.36396 16.0296 7.875 17.8936 7.875Z" stroke="black" stroke-width="2" stroke-linecap="round" stroke-linejoin="round"/>
<path d="M17.8936 7.875V34.875" stroke="black" stroke-width="2" stroke-linecap="round" stroke-linejoin="round"/>
<path d="M12.2686 14.625H23.5186" stroke="black" stroke-width="2" stroke-linecap="round" stroke-linejoin="round"/>
<path d="M7.76845 21.375H4.87495C4.47762 21.375 4.10975 21.5845 3.90714 21.9263C3.70452 22.2681 3.69723 22.6914 3.88795 23.04C6.62756 28.2379 12.0178 31.4939 17.8935 31.5" stroke="black" stroke-width="2" stroke-linecap="round" stroke-linejoin="round"/>
<path d="M28.0186 21.375H30.9121C31.3094 21.375 31.6773 21.5845 31.8799 21.9263C32.0825 22.2681 32.0898 22.6914 31.8991 23.04C29.1594 28.2379 23.7692 31.4939 17.8936 31.5" stroke="black" stroke-width="2" stroke-linecap="round" stroke-linejoin="round"/>
</svg>
