<svg width="36" height="37" viewBox="0 0 36 37" fill="none" xmlns="http://www.w3.org/2000/svg">
<rect x="7" y="13" width="4" height="13" stroke="black" stroke-width="2" stroke-linecap="round" stroke-linejoin="round"/>
<rect x="16" y="13" width="4" height="13" stroke="black" stroke-width="2" stroke-linecap="round" stroke-linejoin="round"/>
<rect x="25" y="13" width="4" height="13" stroke="black" stroke-width="2" stroke-linecap="round" stroke-linejoin="round"/>
<path fill-rule="evenodd" clip-rule="evenodd" d="M32 30H4V27C4 26.4477 4.52233 26 5.16667 26H30.8333C31.4777 26 32 26.4477 32 27V30Z" stroke="black" stroke-width="2" stroke-linecap="round" stroke-linejoin="round"/>
<path d="M2 35H34" stroke="black" stroke-width="2" stroke-linecap="round" stroke-linejoin="round"/>
<path d="M2 30H34" stroke="black" stroke-width="2" stroke-linecap="round" stroke-linejoin="round"/>
<path fill-rule="evenodd" clip-rule="evenodd" d="M32 8.14219V11.7855C32 12.4563 31.4777 13 30.8333 13H5.16667C4.52233 13 4 12.4563 4 11.7855V8.14219L17.4789 1.1275C17.8071 0.957499 18.1929 0.957499 18.5211 1.1275L32 8.14219Z" stroke="black" stroke-width="2" stroke-linecap="round" stroke-linejoin="round"/>
<path d="M4 9H32" stroke="black" stroke-width="2" stroke-linecap="round" stroke-linejoin="round"/>
</svg>
