<svg width="36" height="36" viewBox="0 0 36 36" fill="none" xmlns="http://www.w3.org/2000/svg">
<path d="M27.3523 28.9949C28.2163 29.8596 28.2159 31.261 27.3513 32.1252L26.4232 33.0533C24.2224 35.2559 20.7869 35.6332 18.1606 33.9608L18.1458 33.9505C11.8008 29.6632 6.33645 24.1993 2.04848 17.8545L2.03963 17.8397C0.367039 15.2135 0.74371 11.7776 2.94556 9.57623L3.87511 8.64806C4.73936 7.78398 6.14032 7.78398 7.00457 8.64806L10.9185 12.5609M27.3523 28.9949V28.9949ZM27.3523 28.9949L23.4369 25.082C22.5728 24.2174 21.1715 24.2169 20.3069 25.081M20.3069 25.081V25.081ZM20.3069 25.081C19.4427 25.9451 18.0407 25.9461 17.1764 25.082L10.9175 18.821C10.0535 17.9566 10.0535 16.5555 10.9175 15.6912C11.7821 14.8271 11.7825 13.4256 10.9185 12.5609M10.9185 12.5609V12.5609Z" stroke="black" stroke-width="2" stroke-linecap="round" stroke-linejoin="round"/>
<path d="M35 1L19 17" stroke="black" stroke-width="2" stroke-linecap="round" stroke-linejoin="round"/>
<path d="M28 17L19 17L19 8" stroke="black" stroke-width="2" stroke-linecap="round" stroke-linejoin="round"/>
</svg>
