<svg width="36" height="36" viewBox="0 0 36 36" fill="none" xmlns="http://www.w3.org/2000/svg">
<path d="M23 28H17V34" stroke="black" stroke-width="2" stroke-linecap="round" stroke-linejoin="round"/>
<path d="M34 29.1399C32.7834 32.8514 29.33 35.2468 25.5809 34.9797C21.8319 34.7126 18.7223 31.8497 18 28" stroke="black" stroke-width="2" stroke-linecap="round" stroke-linejoin="round"/>
<path d="M29 24H35V18" stroke="black" stroke-width="2" stroke-linecap="round" stroke-linejoin="round"/>
<path d="M18 22.8601C19.2166 19.1486 22.67 16.7532 26.4191 17.0203C30.1681 17.2874 33.2777 20.1503 34 24" stroke="black" stroke-width="2" stroke-linecap="round" stroke-linejoin="round"/>
<path d="M30 12.5V3.3C30 2.02975 29.0013 1 27.7692 1H3.23077C1.99875 1 1 2.02975 1 3.3V21.7C1 22.9703 1.99875 24 3.23077 24H12.1538" stroke="black" stroke-width="2" stroke-linecap="round" stroke-linejoin="round"/>
<path d="M1 8H30" stroke="black" stroke-width="2" stroke-linecap="round" stroke-linejoin="round"/>
<path d="M6 13H15" stroke="black" stroke-width="2" stroke-linecap="round" stroke-linejoin="round"/>
<path d="M6 18H10" stroke="black" stroke-width="2" stroke-linecap="round" stroke-linejoin="round"/>
</svg>
