<svg width="36" height="36" viewBox="0 0 36 36" fill="none" xmlns="http://www.w3.org/2000/svg">
<path d="M30 12.5V3.3C30 2.02975 29.0013 1 27.7692 1H3.23077C1.99875 1 1 2.02975 1 3.3V21.7C1 22.9703 1.99875 24 3.23077 24H16.6154" stroke="black" stroke-width="2" stroke-linecap="round" stroke-linejoin="round"/>
<path d="M1 8H30" stroke="black" stroke-width="2" stroke-linecap="round" stroke-linejoin="round"/>
<path d="M6 13H15" stroke="black" stroke-width="2" stroke-linecap="round" stroke-linejoin="round"/>
<path d="M6 18H10" stroke="black" stroke-width="2" stroke-linecap="round" stroke-linejoin="round"/>
<path fill-rule="evenodd" clip-rule="evenodd" d="M21 25.5C21 24.6716 21.6716 24 22.5 24H33.5C34.3284 24 35 24.6716 35 25.5V33.5C35 34.3284 34.3284 35 33.5 35H22.5C21.6716 35 21 34.3284 21 33.5V25.5Z" stroke="black" stroke-width="2" stroke-linecap="round" stroke-linejoin="round"/>
<path fill-rule="evenodd" clip-rule="evenodd" d="M28 17V17C25.2386 17 23 19.0893 23 21.6667V24H33V21.6667C33 19.0893 30.7614 17 28 17Z" stroke="black" stroke-width="2" stroke-linecap="round" stroke-linejoin="round"/>
<path d="M28.375 29C28.5821 29 28.75 29.1679 28.75 29.375C28.75 29.5821 28.5821 29.75 28.375 29.75C28.1679 29.75 28 29.5821 28 29.375C28 29.1679 28.1679 29 28.375 29" stroke="black" stroke-width="1.5" stroke-linecap="round" stroke-linejoin="round"/>
</svg>
