<svg width="24" height="24" viewBox="0 0 24 24" fill="none" xmlns="http://www.w3.org/2000/svg">
<path fill-rule="evenodd" clip-rule="evenodd" d="M21.5333 18.6H11.2667L5.4 23V18.6H2.46667C1.65665 18.6 1 17.9434 1 17.1333V2.46667C1 1.65665 1.65665 1 2.46667 1H21.5333C22.3434 1 23 1.65665 23 2.46667V17.1333C23 17.9434 22.3434 18.6 21.5333 18.6Z" stroke="black" stroke-width="2" stroke-linecap="round" stroke-linejoin="round"/>
<path d="M7.6 9.43333C7.3975 9.43333 7.23334 9.5975 7.23334 9.8C7.23334 10.0025 7.3975 10.1667 7.6 10.1667C7.80251 10.1667 7.96667 10.0025 7.96667 9.8C7.96667 9.5975 7.80251 9.43333 7.6 9.43333" stroke="black" stroke-width="2" stroke-linecap="round" stroke-linejoin="round"/>
<path d="M12 9.43333C11.7975 9.43333 11.6333 9.5975 11.6333 9.8C11.6333 10.0025 11.7975 10.1667 12 10.1667C12.2025 10.1667 12.3667 10.0025 12.3667 9.8C12.3667 9.5975 12.2025 9.43333 12 9.43333" stroke="black" stroke-width="2" stroke-linecap="round" stroke-linejoin="round"/>
<path d="M16.4 9.43333C16.1975 9.43333 16.0333 9.5975 16.0333 9.8C16.0333 10.0025 16.1975 10.1667 16.4 10.1667C16.6025 10.1667 16.7667 10.0025 16.7667 9.8C16.7667 9.5975 16.6025 9.43333 16.4 9.43333" stroke="black" stroke-width="2" stroke-linecap="round" stroke-linejoin="round"/>
</svg>
