<svg width="25" height="24" viewBox="0 0 25 24" fill="none" xmlns="http://www.w3.org/2000/svg">
<path fill-rule="evenodd" clip-rule="evenodd" d="M12.7333 1.00002C9.00733 0.994646 5.57177 3.01124 3.76006 6.26712C1.94836 9.52299 2.04577 13.5055 4.01448 16.6689L1 23L7.33012 19.9845C11.0321 22.2871 15.7846 22.0006 19.1831 19.2699C22.5816 16.5392 23.885 11.9599 22.4337 7.84895C20.9823 3.73795 17.093 0.991845 12.7333 1.00002Z" stroke="black" stroke-width="2" stroke-linecap="round" stroke-linejoin="round"/>
<path d="M8.33355 10.9C8.13105 10.9 7.96689 11.0642 7.96689 11.2667C7.96689 11.4692 8.13105 11.6333 8.33355 11.6333C8.53606 11.6333 8.70022 11.4692 8.70022 11.2667C8.70022 11.0642 8.53606 10.9 8.33355 10.9" stroke="black" stroke-width="2" stroke-linecap="round" stroke-linejoin="round"/>
<path d="M12.7335 10.9C12.531 10.9 12.3669 11.0642 12.3669 11.2667C12.3669 11.4692 12.531 11.6333 12.7335 11.6333C12.9361 11.6333 13.1002 11.4692 13.1002 11.2667C13.1002 11.0642 12.9361 10.9 12.7335 10.9" stroke="black" stroke-width="2" stroke-linecap="round" stroke-linejoin="round"/>
<path d="M17.1335 10.9C16.931 10.9 16.7669 11.0642 16.7669 11.2667C16.7669 11.4692 16.931 11.6333 17.1335 11.6333C17.336 11.6333 17.5002 11.4692 17.5002 11.2667C17.5002 11.0642 17.336 10.9 17.1335 10.9" stroke="black" stroke-width="2" stroke-linecap="round" stroke-linejoin="round"/>
</svg>
