<svg width="36" height="36" viewBox="0 0 36 36" fill="none" xmlns="http://www.w3.org/2000/svg">
<path d="M15.4154 9.684L14.0654 5.625C14.0654 3.45038 15.8283 1.6875 18.0029 1.6875C20.1775 1.6875 21.9404 3.45038 21.9404 5.625L20.5904 9.684" stroke="black" stroke-width="2" stroke-linecap="round" stroke-linejoin="round"/>
<path d="M12.375 34.3125V16.3125H6.75C2.25 16.3125 3.375 11.8125 3.375 11.8125C5.28976 11.6749 7.1796 11.2969 9 10.6875C11.9508 9.98987 14.9683 9.61269 18 9.5625" stroke="black" stroke-width="2" stroke-linecap="round" stroke-linejoin="round"/>
<path d="M18 9.5625C21.0317 9.61269 24.0492 9.98987 27 10.6875C28.8204 11.2969 30.7102 11.6749 32.625 11.8125C32.625 11.8125 33.75 16.3125 29.25 16.3125H23.625V34.3125" stroke="black" stroke-width="2" stroke-linecap="round" stroke-linejoin="round"/>
<path d="M1.125 12.9375H3.2505" stroke="black" stroke-width="2" stroke-linecap="round" stroke-linejoin="round"/>
<path d="M32.7495 12.9375H34.875" stroke="black" stroke-width="2" stroke-linecap="round" stroke-linejoin="round"/>
<path d="M23.625 10.026V27.5625L20.991 29.868C20.6587 30.1589 20.1869 30.2285 19.7848 30.0458C19.3827 29.8632 19.1246 29.4622 19.125 29.0205V9.60001" stroke="black" stroke-width="2" stroke-linecap="round" stroke-linejoin="round"/>
<path d="M11.673 10.137C13.551 12.1155 16.758 15.2235 19.1265 16.0845" stroke="black" stroke-width="2" stroke-linecap="round" stroke-linejoin="round"/>
<path d="M12.375 19.8645C14.2847 22.005 16.573 23.7746 19.125 25.0845" stroke="black" stroke-width="2" stroke-linecap="round" stroke-linejoin="round"/>
</svg>
