<svg width="36" height="36" viewBox="0 0 36 36" fill="none" xmlns="http://www.w3.org/2000/svg">
<path fill-rule="evenodd" clip-rule="evenodd" d="M10 10C14.9706 10 19 7.98528 19 5.5C19 3.01472 14.9706 1 10 1C5.02944 1 1 3.01472 1 5.5C1 7.98528 5.02944 10 10 10Z" stroke="black" stroke-width="2" stroke-linecap="round" stroke-linejoin="round"/>
<path d="M19 10C19 12.7617 14.971 15 10 15C5.029 15 1 12.7617 1 10" stroke="black" stroke-width="2" stroke-linecap="round" stroke-linejoin="round"/>
<path d="M19 14V6" stroke="black" stroke-width="2" stroke-linecap="round" stroke-linejoin="round"/>
<path d="M1 6V28.5C1 30.9855 4.90691 33 9.72727 33C10.8263 33.0018 11.9227 32.8897 13 32.6655" stroke="black" stroke-width="2" stroke-linecap="round" stroke-linejoin="round"/>
<path d="M1 24C1 26.2093 4.90691 28 9.72727 28C10.8263 28.0016 11.9227 27.9019 13 27.7026" stroke="black" stroke-width="2" stroke-linecap="round" stroke-linejoin="round"/>
<path d="M1 19C1 21.7617 4.90691 24 9.72727 24C10.8263 24.002 11.9227 23.8774 13 23.6283" stroke="black" stroke-width="2" stroke-linecap="round" stroke-linejoin="round"/>
<path d="M1 15C1 17.2093 4.90691 19 9.72727 19C10.8263 19.0016 11.9227 18.9019 13 18.7026" stroke="black" stroke-width="2" stroke-linecap="round" stroke-linejoin="round"/>
<path fill-rule="evenodd" clip-rule="evenodd" d="M26 25C30.9706 25 35 22.9853 35 20.5C35 18.0147 30.9706 16 26 16C21.0294 16 17 18.0147 17 20.5C17 22.9853 21.0294 25 26 25Z" stroke="black" stroke-width="2" stroke-linecap="round" stroke-linejoin="round"/>
<path d="M17 21V30.3333C17 32.9109 21.029 35 26 35C30.971 35 35 32.9109 35 30.3333V21" stroke="black" stroke-width="2" stroke-linecap="round" stroke-linejoin="round"/>
<path d="M35 25C35 27.7617 30.971 30 26 30C21.029 30 17 27.7617 17 25" stroke="black" stroke-width="2" stroke-linecap="round" stroke-linejoin="round"/>
</svg>
