<svg width="24" height="24" viewBox="0 0 24 24" fill="none" xmlns="http://www.w3.org/2000/svg">
<path fill-rule="evenodd" clip-rule="evenodd" d="M9.68027 14.3197L11.5129 17.619C11.6541 17.8727 11.9303 18.0206 12.2197 17.9977C12.5091 17.9747 12.7585 17.785 12.8579 17.5122L15.9554 8.99501C16.0538 8.72423 15.9864 8.42099 15.7827 8.21727C15.579 8.01356 15.2758 7.94623 15.005 8.04459L6.48781 11.1421C6.21504 11.2415 6.02532 11.4909 6.00234 11.7803C5.97935 12.0697 6.12733 12.3459 6.381 12.4871L9.68027 14.3197Z" stroke="black" stroke-width="2" stroke-linecap="round" stroke-linejoin="round"/>
<path fill-rule="evenodd" clip-rule="evenodd" d="M12 23C18.0751 23 23 18.0751 23 12C23 5.92487 18.0751 1 12 1C5.92487 1 1 5.92487 1 12C1 18.0751 5.92487 23 12 23Z" stroke="black" stroke-width="2" stroke-linecap="round" stroke-linejoin="round"/>
</svg>
