<svg width="36" height="36" viewBox="0 0 36 36" fill="none" xmlns="http://www.w3.org/2000/svg">
<path d="M26 35C30.4183 35 34 31.4183 34 27C34 22.5817 30.4183 19 26 19C21.5817 19 18 22.5817 18 27C18 31.4183 21.5817 35 26 35Z" stroke="black" stroke-width="2"/>
<path d="M18 35H10C6.68629 35 4 32.315 4 29.0012C4 22.3496 4 12.0268 4 8" stroke="black" stroke-width="2" stroke-linecap="round" stroke-linejoin="round"/>
<path d="M31 17V7.92308L24.3226 1H10C8.89543 1 8 1.89543 8 3V29C8 30.1046 8.89543 31 10 31H15" stroke="black" stroke-width="2" stroke-linecap="round" stroke-linejoin="round"/>
<path d="M29.0025 30.4002L23.001 24.1993" stroke="black" stroke-width="2" stroke-linecap="round"/>
<path d="M23.0001 30.4002L29.0022 24.1999" stroke="black" stroke-width="2" stroke-linecap="round"/>
<path d="M24 8H23C23 8.55228 23.4477 9 24 9V8ZM31 9C31.5523 9 32 8.55228 32 8C32 7.44772 31.5523 7 31 7V9ZM23 1V8H25V1H23ZM24 9H31V7H24V9Z" fill="black"/>
</svg>
