<svg width="26" height="26" viewBox="0 0 26 26" fill="none" xmlns="http://www.w3.org/2000/svg">
<path fill-rule="evenodd" clip-rule="evenodd" d="M7 12C6.44772 12 6 12.4477 6 13C6 13.5523 6.44772 14 7 14C7.55228 14 8 13.5523 8 13C8 12.4477 7.55228 12 7 12Z" fill="black" stroke="black" stroke-width="2"/>
<path fill-rule="evenodd" clip-rule="evenodd" d="M13 12C12.4477 12 12 12.4477 12 13C12 13.5523 12.4477 14 13 14C13.5523 14 14 13.5523 14 13C14 12.4477 13.5523 12 13 12Z" fill="black" stroke="black" stroke-width="2"/>
<path fill-rule="evenodd" clip-rule="evenodd" d="M19 12C18.4477 12 18 12.4477 18 13C18 13.5523 18.4477 14 19 14C19.5523 14 20 13.5523 20 13C20 12.4477 19.5523 12 19 12Z" fill="black" stroke="black" stroke-width="2"/>
<path fill-rule="evenodd" clip-rule="evenodd" d="M13 24.253C19.2132 24.253 24.25 19.2162 24.25 13.003C24.25 6.78979 19.2132 1.753 13 1.753C6.7868 1.753 1.75 6.78979 1.75 13.003C1.75 19.2162 6.7868 24.253 13 24.253Z" stroke="black" stroke-width="2" stroke-linecap="round" stroke-linejoin="round"/>
</svg>
