<svg width="24" height="24" viewBox="0 0 24 24" fill="none" xmlns="http://www.w3.org/2000/svg">
<path d="M10 6.17799C10.6657 6.05386 11.3355 5.99086 12.0015 6.00107C15.9429 5.94063 20.0193 8.44473 22.5821 11.0093C23.1393 11.5716 23.1393 12.4257 22.5821 12.988C21.8981 13.673 21.0981 14.3617 20.2149 15L20 15.1503M4 8.84818C3.03846 9.52233 2.16424 10.2633 1.41787 11.0093C0.860711 11.5716 0.860711 12.4257 1.41787 12.988C3.92688 15.4984 7.99253 18.0603 12.0015 17.9989C12.6686 18.0091 13.3372 17.9467 14 17.8239" stroke="black" stroke-width="2" stroke-linecap="round" stroke-linejoin="round"/>
<path d="M9 12.5373C9.22466 13.7968 10.2251 14.788 11.4899 15M15 11.493C14.7861 10.2191 13.7798 9.21372 12.5049 9" stroke="black" stroke-width="2" stroke-linecap="round" stroke-linejoin="round"/>
<path d="M22 21L2 3" stroke="black" stroke-width="2" stroke-linecap="round" stroke-linejoin="round"/>
</svg>
