<svg width="24" height="24" viewBox="0 0 24 24" fill="none" xmlns="http://www.w3.org/2000/svg">
<path fill-rule="evenodd" clip-rule="evenodd" d="M22.9984 1.81313C23.0117 1.60273 22.9405 1.39601 22.8016 1.242C22.6628 1.08798 22.4687 1.00039 22.2655 1H1.7346C1.53123 1.00009 1.337 1.08759 1.1981 1.24168C1.05921 1.39576 0.988079 1.60266 1.00164 1.81313C1.35581 6.9285 4.94909 11.1741 9.7933 12.2009V22.238C9.79341 22.5337 9.95837 22.8026 10.2165 22.928C10.4747 23.0534 10.7795 23.0127 10.9986 22.8234L13.9383 20.2824C14.1061 20.1378 14.203 19.9232 14.2028 19.6969V12.2009C19.0488 11.176 22.6441 6.92986 22.9984 1.81313Z" stroke="black" stroke-width="2" stroke-linecap="round" stroke-linejoin="round"/>
</svg>
