<svg width="36" height="36" viewBox="0 0 36 36" fill="none" xmlns="http://www.w3.org/2000/svg">
<path d="M2.4 35C1.62681 35 1 34.3234 1 33.4889V2.51111C1 1.67655 1.62681 1 2.4 1H20.6C21.3732 1 22 1.67655 22 2.51111V33.4889C22 34.3234 21.3732 35 20.6 35H2.4Z" stroke="black" stroke-width="2" stroke-linecap="round" stroke-linejoin="round"/>
<path d="M19 7.5C19 6.11929 17.8807 5 16.5 5H6.5V5C5.11929 5 4 6.11929 4 7.5C4 8.88071 5.11929 10 6.5 10H16.5V10C17.8807 10 19 8.88071 19 7.5V7.5Z" stroke="black" stroke-width="2" stroke-linecap="round" stroke-linejoin="round"/>
<path d="M1 14L22 14" stroke="black" stroke-width="2" stroke-linecap="round" stroke-linejoin="round"/>
<path d="M23 8H23.5C25.7091 8 27.5 9.79086 27.5 12V32.375C27.5 33.8247 28.6753 35 30.125 35V35C31.5747 35 32.75 33.8247 32.75 32.375V19.25L33.5 14L35 13.4" stroke="black" stroke-width="2" stroke-linecap="round" stroke-linejoin="round"/>
<path d="M31 20H34" stroke="black" stroke-width="2" stroke-linecap="round" stroke-linejoin="round"/>
</svg>
