<svg width="36" height="36" viewBox="0 0 36 36" fill="none" xmlns="http://www.w3.org/2000/svg">
<path d="M33 14L32.139 9L27 9.83767" stroke="black" stroke-width="2" stroke-linecap="round" stroke-linejoin="round"/>
<path d="M32 9L26.839 16.047C26.6575 16.2987 26.3804 16.4693 26.0692 16.5212C25.7579 16.5731 25.4383 16.5018 25.1812 16.3233L22.3292 14.3436C21.7951 13.9731 21.0539 14.0941 20.673 14.6139L16 21" stroke="black" stroke-width="2" stroke-linecap="round" stroke-linejoin="round"/>
<path d="M24 22.5333V30.4667C24 32.9704 21.9107 35 19.3333 35H7.66667C5.08934 35 3 32.9704 3 30.4667V5.53333C3 3.02964 5.08934 1 7.66667 1H19.3333C21.9107 1 24 3.02964 24 5.53333" stroke="black" stroke-width="2" stroke-linecap="round" stroke-linejoin="round"/>
<path d="M3 28H24" stroke="black" stroke-width="2" stroke-linecap="round" stroke-linejoin="round"/>
</svg>
