<svg width="36" height="36" viewBox="0 0 36 36" fill="none" xmlns="http://www.w3.org/2000/svg">
<path d="M30 22L25 22" stroke="black" stroke-width="2" stroke-linecap="round" stroke-linejoin="round"/>
<path d="M22.0285 12.9595L15.2641 14.909C14.4334 15.1963 13.5297 14.7834 13.1632 13.9492C12.7666 13.055 13.1166 11.9915 13.9542 11.5456L20.5797 8.39428C21.445 7.93581 22.4524 7.87439 23.3623 8.22462L31 10.6031" stroke="black" stroke-width="2" stroke-linecap="round" stroke-linejoin="round"/>
<path d="M19 14C19 14 22.7216 16.4833 25.0579 18.202C27.1105 19.712 25.4354 23.1093 22.793 21.9769C24.303 23.8643 22.0381 26.1292 20.1507 24.9967C21.4975 26.523 19.2949 28.9604 17.1308 27.6391L6.93871 21.5994L5.0514 21.5994" stroke="black" stroke-width="2" stroke-linecap="round" stroke-linejoin="round"/>
<path d="M19 8.18747L18.2665 7.27084V7.27085C17.5274 6.44544 16.6335 6.00013 15.7156 6V6C15.1687 5.9997 14.6268 6.15899 14.1196 6.46919L5 12" stroke="black" stroke-width="2" stroke-linecap="round" stroke-linejoin="round"/>
<path d="M1 9.00144H3.66667C4.37155 8.96406 4.96758 9.65877 5 10.5556V21.4428C4.96757 22.3398 4.37178 23.0351 3.66667 22.9986H1" stroke="black" stroke-width="2" stroke-linecap="round" stroke-linejoin="round"/>
<path d="M35 22.9986H32.3333V22.9986C31.6282 23.0351 31.0324 22.3398 31 21.4428V10.5556V10.5556C31.0324 9.65877 31.6284 8.96406 32.3333 9.00144H35" stroke="black" stroke-width="2" stroke-linecap="round" stroke-linejoin="round"/>
<path d="M20.1506 24.9967L18.6406 23.8643" stroke="black" stroke-width="2" stroke-linecap="round" stroke-linejoin="round"/>
<path d="M23.3215 22.3544L20.1506 20.0895" stroke="black" stroke-width="2" stroke-linecap="round" stroke-linejoin="round"/>
</svg>
