<svg width="36" height="36" viewBox="0 0 36 36" fill="none" xmlns="http://www.w3.org/2000/svg">
<path d="M31 30C31.6 30 32.1 29.7971 32.6 29.3913L32.7 29.1884C33.1 28.7826 33.2 28.2754 33.3 27.6667C33.3 27.058 33.1 26.4493 32.6 26.0435C32.4 25.8406 32.1 25.6377 31.9 25.5362H32.2C32.8 25.5362 33.4 25.3333 33.8 24.8261C34.2 24.3188 34.4 23.8116 34.4 23.2029C34.4 22.5942 34.2 21.9855 33.7 21.5797C33.3 21.1739 33 20.971 32.5 20.971V20.8696H32.9C33.5 20.8696 34 20.6667 34.4 20.2609C34.8 19.8551 35 19.2464 35 18.7391C35 18.6377 35 18.1304 35 17.1159C34.9 16.6087 34.7 16.2029 34.4 15.8986C34 15.4928 33.4 15.2899 32.5 15.2899H21.5C22.3 14.4783 22.8 13.4638 22.9 12.3478C22.9 12.0435 23 10.8261 23 8.5942L22.3 3.72464C22.2 3.31884 22 2.91304 21.7 2.6087C21.3 2.2029 20.8 2 20.2 2C19.6 2 19.1 2.2029 18.7 2.6087C18.3 3.01449 18.1 3.52174 18.1 4.13043L17.2 9.30435C15.6 14.0725 13.2 17.3188 10 18.8406" stroke="black" stroke-width="2" stroke-miterlimit="10" stroke-linecap="round" stroke-linejoin="round"/>
<path d="M10 18V33" stroke="#020202" stroke-width="2" stroke-miterlimit="10" stroke-linecap="round" stroke-linejoin="round"/>
<path d="M10 18.2C10 17.4 9.59091 17 8.77273 17H2.22727C1.40909 17 1 17.4 1 18.2V32.8C1 33.6 1.40909 34 2.22727 34H8.77273C9.59091 34 10 33.6 10 32.8V32.3" stroke="black" stroke-width="2" stroke-miterlimit="10" stroke-linecap="round" stroke-linejoin="round"/>
<path d="M10 32.6667C11.1946 33.4167 12.5882 33.8333 14.3801 34H29.7104C30.3077 34 30.905 33.8333 31.3032 33.4167L31.5023 33.25C31.8009 32.9167 32 32.5 32 32C32 31.5 31.8009 31 31.3032 30.6667C30.8054 30.25 30.5068 30 30.4072 30" stroke="black" stroke-width="2" stroke-miterlimit="10" stroke-linecap="round" stroke-linejoin="round"/>
</svg>
