<svg width="36" height="36" viewBox="0 0 36 36" fill="none" xmlns="http://www.w3.org/2000/svg">
<path d="M29.8869 23.5533C29.8869 22.5333 28.9819 21.6267 27.9638 21.6267H27.7375C26.7194 21.6267 25.9276 22.3067 25.8145 23.2133V21.5133C25.8145 20.4933 24.9095 19.5867 23.8914 19.5867H23.6651C22.647 19.5867 21.8552 20.2667 21.742 21.1733V19.36C21.742 18.34 20.8371 17.4333 19.819 17.4333H19.5927C18.5746 17.4333 17.7827 18.1133 17.6696 19.02V11.3133C17.6696 10.2933 16.7646 9.38666 15.7465 9.38666H15.5203C14.5022 9.38666 13.5972 10.18 13.5972 11.3133V28.2L10.4298 25.14C9.63791 24.46 8.39356 24.46 7.71483 25.14L7.60171 25.2533C6.80985 25.9333 6.80985 27.18 7.60171 27.86L13.5972 34.4333C13.8235 34.7733 14.2759 35 14.7284 35H28.4163C29.2081 35 30 34.32 30 33.5267V23.5533H29.8869Z" stroke="black" stroke-width="2" stroke-miterlimit="10" stroke-linecap="round" stroke-linejoin="round"/>
<path d="M8.73305 10.4066C8.16743 10.4066 5.56561 10.4066 5 10.4066H8.73305Z" stroke="black" stroke-width="2" stroke-miterlimit="10" stroke-linecap="round" stroke-linejoin="round"/>
<path d="M15.6333 1C15.6333 1.56667 15.6333 4.17333 15.6333 4.62667V1Z" stroke="black" stroke-width="2" stroke-miterlimit="10" stroke-linecap="round" stroke-linejoin="round"/>
<path d="M11.4483 6.66666C10.9959 6.21333 9.18589 4.51333 8.7334 4.06L11.4483 6.66666Z" stroke="black" stroke-width="2" stroke-miterlimit="10" stroke-linecap="round" stroke-linejoin="round"/>
<path d="M26.267 10.4066C25.7014 10.4066 23.0995 10.4066 22.5339 10.4066H26.267Z" stroke="black" stroke-width="2" stroke-miterlimit="10" stroke-linecap="round" stroke-linejoin="round"/>
<path d="M22.5343 4.06C22.0818 4.51333 20.2718 6.21333 19.8193 6.66666L22.5343 4.06Z" stroke="black" stroke-width="2" stroke-miterlimit="10" stroke-linecap="round" stroke-linejoin="round"/>
</svg>
