<svg width="36" height="36" viewBox="0 0 36 36" fill="none" xmlns="http://www.w3.org/2000/svg">
<path d="M18 3.3765V1.1265" stroke="black" stroke-width="2" stroke-linecap="round" stroke-linejoin="round"/>
<path d="M27.546 7.33201L29.1375 5.74051" stroke="black" stroke-width="2" stroke-linecap="round" stroke-linejoin="round"/>
<path d="M31.5 16.8765H33.75" stroke="black" stroke-width="2" stroke-linecap="round" stroke-linejoin="round"/>
<path d="M27.546 26.4225L29.1375 28.014" stroke="black" stroke-width="2" stroke-linecap="round" stroke-linejoin="round"/>
<path d="M8.45393 7.33201L6.86243 5.74051" stroke="black" stroke-width="2" stroke-linecap="round" stroke-linejoin="round"/>
<path d="M4.5 16.8765H2.25" stroke="black" stroke-width="2" stroke-linecap="round" stroke-linejoin="round"/>
<path d="M8.45393 26.4225L6.86243 28.014" stroke="black" stroke-width="2" stroke-linecap="round" stroke-linejoin="round"/>
<path d="M13.5 24.6735V28.1235C13.5 30.6088 15.5147 32.6235 18 32.6235C20.4853 32.6235 22.5 30.6088 22.5 28.1235V24.6735" stroke="black" stroke-width="2" stroke-linecap="round" stroke-linejoin="round"/>
<path fill-rule="evenodd" clip-rule="evenodd" d="M18 25.8765C22.9706 25.8765 27 21.8471 27 16.8765C27 11.9059 22.9706 7.8765 18 7.8765C13.0294 7.8765 9 11.9059 9 16.8765C9 21.8471 13.0294 25.8765 18 25.8765Z" stroke="black" stroke-width="2" stroke-linecap="round" stroke-linejoin="round"/>
<path d="M18 32.6265V34.8765" stroke="black" stroke-width="2" stroke-linecap="round" stroke-linejoin="round"/>
</svg>
