<svg width="26" height="25" viewBox="0 0 26 25" fill="none" xmlns="http://www.w3.org/2000/svg">
<path fill-rule="evenodd" clip-rule="evenodd" d="M13.8001 14.4619L16.2893 11.9727L18.0029 12.4324C18.5331 12.5738 19.0984 12.4219 19.4864 12.034C19.8744 11.646 20.0262 11.0807 19.8848 10.5505L19.4251 8.83691L20.1919 8.07008L21.9055 8.52979C22.4358 8.67183 23.0015 8.52022 23.3897 8.13206C23.7778 7.74391 23.9294 7.17817 23.7874 6.64794L23.3287 4.93432C24.2286 4.0341 24.2284 2.57477 23.3282 1.67482C22.428 0.774869 20.9686 0.775088 20.0687 1.67531L10.5411 11.2029C7.83302 10.0548 4.6911 10.9865 3.04679 13.4254C1.40249 15.8642 1.71694 19.1263 3.79682 21.2062C5.8767 23.2861 9.13876 23.6005 11.5776 21.9562C14.0165 20.3119 14.9482 17.17 13.8001 14.4619Z" stroke="black" stroke-width="2" stroke-linecap="round" stroke-linejoin="round"/>
<path fill-rule="evenodd" clip-rule="evenodd" d="M8.10953 18.8467C9.18991 18.8467 10.0657 17.9709 10.0657 16.8905C10.0657 15.8102 9.18991 14.9344 8.10953 14.9344C7.02916 14.9344 6.15335 15.8102 6.15335 16.8905C6.15335 17.9709 7.02916 18.8467 8.10953 18.8467Z" stroke="black" stroke-width="2" stroke-linecap="round" stroke-linejoin="round"/>
</svg>
