<svg width="36" height="36" viewBox="0 0 36 36" fill="none" xmlns="http://www.w3.org/2000/svg">
<path d="M1.75 1C1.33579 1 1 1.33579 1 1.75C1 2.16421 1.33579 2.5 1.75 2.5C2.16421 2.5 2.5 2.16421 2.5 1.75C2.5 1.33579 2.16421 1 1.75 1V1" stroke="black" stroke-width="2" stroke-linecap="round" stroke-linejoin="round"/>
<path d="M9.75 1C9.33579 1 9 1.33579 9 1.75C9 2.16421 9.33579 2.5 9.75 2.5C10.1642 2.5 10.5 2.16421 10.5 1.75C10.5 1.33579 10.1642 1 9.75 1" stroke="black" stroke-width="2" stroke-linecap="round" stroke-linejoin="round"/>
<path d="M17.75 1C17.3358 1 17 1.33579 17 1.75C17 2.16421 17.3358 2.5 17.75 2.5C18.1642 2.5 18.5 2.16421 18.5 1.75C18.5 1.33579 18.1642 1 17.75 1" stroke="black" stroke-width="2" stroke-linecap="round" stroke-linejoin="round"/>
<path d="M1.75 9C1.33579 9 1 9.33579 1 9.75C1 10.1642 1.33579 10.5 1.75 10.5C2.16421 10.5 2.5 10.1642 2.5 9.75C2.5 9.33579 2.16421 9 1.75 9" stroke="black" stroke-width="2" stroke-linecap="round" stroke-linejoin="round"/>
<path d="M9.75 9C9.33579 9 9 9.33579 9 9.75C9 10.1642 9.33579 10.5 9.75 10.5C10.1642 10.5 10.5 10.1642 10.5 9.75C10.5 9.33579 10.1642 9 9.75 9" stroke="black" stroke-width="2" stroke-linecap="round" stroke-linejoin="round"/>
<path d="M1.75 17C1.33579 17 1 17.3358 1 17.75C1 18.1642 1.33579 18.5 1.75 18.5C2.16421 18.5 2.5 18.1642 2.5 17.75C2.5 17.3358 2.16421 17 1.75 17" stroke="black" stroke-width="2" stroke-linecap="round" stroke-linejoin="round"/>
<path d="M9.75 17C9.33579 17 9 17.3358 9 17.75C9 18.1642 9.33579 18.5 9.75 18.5C10.1642 18.5 10.5 18.1642 10.5 17.75C10.5 17.3358 10.1642 17 9.75 17" stroke="black" stroke-width="2" stroke-linecap="round" stroke-linejoin="round"/>
<path d="M9.54309 35L6.47211 29.7575C5.50713 28.089 6.0665 25.9754 7.73901 24.9704C9.41153 23.9653 11.5997 24.428 12.6949 26.0182L15.6042 30.2727V12.5455C15.6042 10.5874 17.2324 9 19.2409 9C21.2494 9 22.8776 10.5874 22.8776 12.5455V25.5455H28.3391C32.0817 25.7233 35.0173 28.7423 34.9999 32.3953V35" stroke="black" stroke-width="2" stroke-linecap="round" stroke-linejoin="round"/>
</svg>
