<svg width="36" height="36" viewBox="0 0 36 36" fill="none" xmlns="http://www.w3.org/2000/svg">
<path fill-rule="evenodd" clip-rule="evenodd" d="M8.51697 35L14.4707 20.7121C14.6161 20.3618 14.5811 19.9599 14.3774 19.6419C14.1738 19.3238 13.8286 19.132 13.4583 19.1312H9.1047C8.73319 19.1327 8.38604 18.9412 8.18161 18.6221C7.97717 18.3031 7.94305 17.8995 8.09086 17.5489L14.8351 1.68009C15.0103 1.26721 15.4066 1.00023 15.8445 1H27.1584C27.5821 1.00016 27.9682 1.25016 28.1515 1.64307C28.3348 2.03598 28.2829 2.5022 28.018 2.84229L22.0672 10.4941C21.8029 10.8344 21.7517 11.3003 21.9352 11.6928C22.1188 12.0852 22.5048 12.3348 22.9282 12.3348H27.8975C28.3435 12.3346 28.7457 12.611 28.9163 13.035C29.0868 13.4589 28.992 13.9468 28.6762 14.2708L8.51697 35Z" stroke="black" stroke-width="2" stroke-linejoin="round"/>
</svg>
