<svg width="24" height="24" viewBox="0 0 24 24" fill="none" xmlns="http://www.w3.org/2000/svg">
<path d="M7 17L17 7" stroke="black" stroke-width="2" stroke-linecap="round" stroke-linejoin="round"/>
<path d="M7.83626 12.0073C6.59118 11.9355 5.37462 12.3984 4.49208 13.2795L2.29004 15.4816C1.17745 16.5942 0.742931 18.2158 1.15017 19.7356C1.5574 21.2555 2.74452 22.4426 4.26435 22.8498C5.78418 23.2571 7.40581 22.8226 8.5184 21.71L10.7205 19.5079C11.6016 18.6254 12.0645 17.4088 11.9927 16.1637" stroke="black" stroke-width="2" stroke-linecap="round" stroke-linejoin="round"/>
<path d="M16.1608 11.9928C17.4064 12.0644 18.6234 11.6016 19.5064 10.7205L21.7094 8.51842C22.8225 7.40583 23.2572 5.78419 22.8498 4.26436C22.4424 2.74453 21.2547 1.5574 19.7343 1.15017C18.2138 0.74293 16.5915 1.17745 15.4784 2.29004L13.2754 4.49209C12.3959 5.37569 11.9348 6.59199 12.0075 7.83627" stroke="black" stroke-width="2" stroke-linecap="round" stroke-linejoin="round"/>
</svg>
