<svg width="24" height="24" viewBox="0 0 24 24" fill="none" xmlns="http://www.w3.org/2000/svg">
<path d="M23 9.06691V4.81358C23.0001 4.21373 22.6349 3.67428 22.078 3.45153L16.2113 1.10487C15.8617 0.965044 15.4717 0.965044 15.1221 1.10487L8.87797 3.60309C8.52835 3.74291 8.13834 3.74291 7.78872 3.60309L2.00614 1.28967C1.77957 1.19886 1.52268 1.22674 1.32086 1.36403C1.11904 1.50132 0.998763 1.73003 1.00001 1.97411V16.0277C0.999909 16.6276 1.36509 17.167 1.92205 17.3898L7.78872 19.7364C8.13834 19.8762 8.52835 19.8762 8.87797 19.7364L11.6949 18.609" stroke="black" stroke-width="2" stroke-linecap="round" stroke-linejoin="round"/>
<path d="M8.33333 3.70746V19.8408" stroke="black" stroke-width="2" stroke-linecap="round" stroke-linejoin="round"/>
<path d="M15.6667 1V8.33333" stroke="black" stroke-width="2" stroke-linecap="round" stroke-linejoin="round"/>
<path d="M18.6 15.3724C18.8025 15.3724 18.9667 15.5365 18.9667 15.739" stroke="black" stroke-width="2" stroke-linecap="round" stroke-linejoin="round"/>
<path d="M18.2333 15.739C18.2333 15.5365 18.3975 15.3724 18.6 15.3724" stroke="black" stroke-width="2" stroke-linecap="round" stroke-linejoin="round"/>
<path d="M18.6 16.1067C18.3975 16.1067 18.2333 15.9425 18.2333 15.74" stroke="black" stroke-width="2" stroke-linecap="round" stroke-linejoin="round"/>
<path d="M18.9667 15.7391C18.9667 15.9416 18.8025 16.1057 18.6 16.1057" stroke="black" stroke-width="2" stroke-linecap="round" stroke-linejoin="round"/>
<path fill-rule="evenodd" clip-rule="evenodd" d="M18.6 11.3391C21.0301 11.3391 23 13.309 23 15.7391C23 17.6174 20.3717 21.1911 19.1779 22.7184C19.0389 22.8963 18.8257 23.0003 18.6 23.0003C18.3743 23.0003 18.1611 22.8963 18.0221 22.7184C16.8283 21.1921 14.2 17.6174 14.2 15.7391C14.2 13.309 16.1699 11.3391 18.6 11.3391V11.3391Z" stroke="black" stroke-width="2" stroke-linecap="round" stroke-linejoin="round"/>
</svg>
