<svg width="36" height="36" viewBox="0 0 36 36" fill="none" xmlns="http://www.w3.org/2000/svg">
<path d="M30.9594 30.5V21.2H32.2672C34.0891 21.2 35 20.3 35 18.5C35 13.9 35 9.3 35 4.7C35 2.9 34.0891 2 32.2672 2C25.7895 2 19.2105 2 12.7328 2C10.9109 2 10 2.9 10 4.7V7.5" stroke="black" stroke-width="2" stroke-miterlimit="10" stroke-linecap="round" stroke-linejoin="round"/>
<path d="M9.84211 8C7.80162 8 5.66397 8 3.62348 8C1.87449 8 1 8.88364 1 10.6509V24.1018C1 25.8691 1.87449 26.7527 3.62348 26.7527H5.08097V35L12.4656 26.7527H22.3765C22.5709 26.7527 22.7652 26.7527 22.9595 26.7527C24.2227 26.5564 24.9028 25.7709 25 24.3964" stroke="black" stroke-width="2" stroke-miterlimit="10" stroke-linecap="round" stroke-linejoin="round"/>
<path d="M31 30.5L23 21.0299H12.7692C12.5641 21.0299 12.359 21.0299 12.2564 21.0299C10.8205 20.8383 10 20.0719 10 18.4431V8" stroke="black" stroke-width="2" stroke-miterlimit="10" stroke-linecap="round" stroke-linejoin="round"/>
</svg>
