<svg width="36" height="36" viewBox="0 0 36 36" fill="none" xmlns="http://www.w3.org/2000/svg">
<path fill-rule="evenodd" clip-rule="evenodd" d="M10 25C14.9706 25 19 22.9853 19 20.5C19 18.0147 14.9706 16 10 16C5.02944 16 1 18.0147 1 20.5C1 22.9853 5.02944 25 10 25Z" stroke="black" stroke-width="2" stroke-linecap="round" stroke-linejoin="round"/>
<path d="M1 21V30.3333C1 32.9109 5.029 35 10 35C14.971 35 19 32.9109 19 30.3333V21" stroke="black" stroke-width="2" stroke-linecap="round" stroke-linejoin="round"/>
<path d="M19 26C19 28.2093 14.971 30 10 30C5.029 30 1 28.2093 1 26" stroke="black" stroke-width="2" stroke-linecap="round" stroke-linejoin="round"/>
<path d="M23.6667 24H32.7333C33.9852 24 35 22.9703 35 21.7V3.3C35 2.02974 33.9852 1 32.7333 1H3.26667C2.01482 1 1 2.02974 1 3.3V14" stroke="black" stroke-width="2" stroke-linecap="round" stroke-linejoin="round"/>
<path d="M13 13.1379C13.0002 10.771 14.5739 8.71056 16.8111 8.14782C19.0484 7.58509 21.3702 8.66571 22.4343 10.7649C23.4983 12.8641 23.0292 15.4386 21.2981 17" stroke="black" stroke-width="2" stroke-linecap="round" stroke-linejoin="round"/>
<path d="M6.75 6C7.16421 6 7.5 6.33579 7.5 6.75C7.5 7.16421 7.16421 7.5 6.75 7.5C6.33579 7.5 6 7.16421 6 6.75C6 6.33579 6.33579 6 6.75 6" stroke="black" stroke-width="2" stroke-linecap="round" stroke-linejoin="round"/>
<path d="M29.375 17C29.5821 17 29.75 17.3358 29.75 17.75C29.75 18.1642 29.5821 18.5 29.375 18.5C29.1679 18.5 29 18.1642 29 17.75C29 17.3358 29.1679 17 29.375 17" stroke="black" stroke-width="2" stroke-linecap="round" stroke-linejoin="round"/>
</svg>
