<svg width="36" height="36" viewBox="0 0 36 36" fill="none" xmlns="http://www.w3.org/2000/svg">
<path d="M32.625 27V31.5C32.625 32.7426 31.6176 33.75 30.375 33.75H4.5C2.63604 33.75 1.125 32.239 1.125 30.375V5.625C1.125 3.76104 2.63604 2.25 4.5 2.25H28.125C28.7217 2.25 29.294 2.48705 29.716 2.90901C30.1379 3.33097 30.375 3.90326 30.375 4.5V7.875" stroke="black" stroke-width="2" stroke-linecap="round" stroke-linejoin="round"/>
<path fill-rule="evenodd" clip-rule="evenodd" d="M32.625 27C33.8676 27 34.875 25.9926 34.875 24.75V18C34.875 16.7574 33.8676 15.75 32.625 15.75H27C23.8934 15.75 21.375 18.2684 21.375 21.375C21.375 24.4816 23.8934 27 27 27H32.625Z" stroke="black" stroke-width="2" stroke-linecap="round" stroke-linejoin="round"/>
<path d="M27 20.8125C27.3107 20.8125 27.5625 21.0643 27.5625 21.375C27.5625 21.6857 27.3107 21.9375 27 21.9375C26.6893 21.9375 26.4375 21.6857 26.4375 21.375C26.4375 21.0643 26.6893 20.8125 27 20.8125" stroke="black" stroke-width="1.5" stroke-linecap="round" stroke-linejoin="round"/>
<path d="M32.625 15.75V10.125C32.625 8.88233 31.6176 7.87497 30.375 7.87497H8.43748C7.44142 7.92181 6.50431 7.40216 6.01648 6.53247" stroke="black" stroke-width="2" stroke-linecap="round" stroke-linejoin="round"/>
</svg>
