<svg width="36" height="36" viewBox="0 0 36 36" fill="none" xmlns="http://www.w3.org/2000/svg">
<path d="M5.375 11C5.58211 11 5.75 11.1679 5.75 11.375C5.75 11.5821 5.58211 11.75 5.375 11.75C5.16789 11.75 5 11.5821 5 11.375C5 11.1679 5.16789 11 5.375 11" stroke="black" stroke-width="2" stroke-linecap="round" stroke-linejoin="round"/>
<path d="M25.75 19C26.1642 19 26.5 19.3358 26.5 19.75C26.5 20.1642 26.1642 20.5 25.75 20.5C25.3358 20.5 25 20.1642 25 19.75C25 19.3358 25.3358 19 25.75 19" stroke="black" stroke-width="2" stroke-linecap="round" stroke-linejoin="round"/>
<path fill-rule="evenodd" clip-rule="evenodd" d="M1 7.5C1 6.67157 1.67157 6 2.5 6H29.5C30.3284 6 31 6.67157 31 7.5V23.5C31 24.3284 30.3284 25 29.5 25H2.5C1.67157 25 1 24.3284 1 23.5V7.5Z" stroke="black" stroke-width="2" stroke-linecap="round" stroke-linejoin="round"/>
<path fill-rule="evenodd" clip-rule="evenodd" d="M15.5 20C17.9853 20 20 17.9853 20 15.5C20 13.0147 17.9853 11 15.5 11C13.0147 11 11 13.0147 11 15.5C11 17.9853 13.0147 20 15.5 20Z" stroke="black" stroke-width="2" stroke-linecap="round" stroke-linejoin="round"/>
<path d="M35 13V26.7143C35 27.9767 33.9553 29 32.6667 29H7" stroke="black" stroke-width="2" stroke-linecap="round" stroke-linejoin="round"/>
</svg>
