<svg width="36" height="36" viewBox="0 0 36 36" fill="none" xmlns="http://www.w3.org/2000/svg">
<path d="M35 8.85714V30.5714C35 32.465 33.4778 34 31.6 34C29.7222 34 28.2 32.465 28.2 30.5714V4.28571C28.2 3.02335 27.1852 2 25.9333 2H3.26667C2.01482 2 1 3.02335 1 4.28571V30.5714C1 32.465 2.52223 34 4.4 34H31.6" stroke="black" stroke-width="2" stroke-linecap="round" stroke-linejoin="round"/>
<path d="M7 22H22" stroke="black" stroke-width="2" stroke-linecap="round" stroke-linejoin="round"/>
<path d="M7 27H16" stroke="black" stroke-width="2" stroke-linecap="round" stroke-linejoin="round"/>
<path fill-rule="evenodd" clip-rule="evenodd" d="M7 8.75C7 8.33579 7.33579 8 7.75 8H21.25C21.6642 8 22 8.33579 22 8.75V16.25C22 16.6642 21.6642 17 21.25 17H7.75C7.33579 17 7 16.6642 7 16.25V8.75Z" stroke="black" stroke-width="2" stroke-linecap="round" stroke-linejoin="round"/>
</svg>
