<svg width="36" height="36" viewBox="0 0 36 36" fill="none" xmlns="http://www.w3.org/2000/svg">
<path d="M9.88889 35H3.22222C1.99492 35 1 33.9852 1 32.7333V3.26667C1 2.01482 1.99492 1 3.22222 1H18.7778C20.0051 1 21 2.01482 21 3.26667V16.8667" stroke="black" stroke-width="2" stroke-linecap="round" stroke-linejoin="round"/>
<path d="M1 29H10" stroke="black" stroke-width="2" stroke-linecap="round" stroke-linejoin="round"/>
<path fill-rule="evenodd" clip-rule="evenodd" d="M15 22.5C15 21.6716 15.6716 21 16.5 21H33.5C34.3284 21 35 21.6716 35 22.5V33.5C35 34.3284 34.3284 35 33.5 35H16.5C15.6716 35 15 34.3284 15 33.5V22.5Z" stroke="black" stroke-width="2" stroke-linecap="round" stroke-linejoin="round"/>
<path d="M15 26H35" stroke="black" stroke-width="2" stroke-linecap="round" stroke-linejoin="round"/>
<path d="M19 30H23" stroke="black" stroke-width="2" stroke-linecap="round" stroke-linejoin="round"/>
</svg>
