<svg width="36" height="36" viewBox="0 0 36 36" fill="none" xmlns="http://www.w3.org/2000/svg">
<path d="M24 27V28.25C24 30.3211 22.4221 32 20.4758 32H5.20403C3.4239 32.0006 1.79631 30.9307 1 29.2367" stroke="black" stroke-width="2" stroke-linecap="round" stroke-linejoin="round"/>
<path d="M5.5 23H7.75C10.2353 23 12.25 20.851 12.25 18.2H15.625C17.489 18.2 19 16.5882 19 14.6C19 12.6118 17.489 11 15.625 11H5.5C3.01472 11 1 13.149 1 15.8" stroke="black" stroke-width="2" stroke-linecap="round" stroke-linejoin="round"/>
<path d="M7 10.5V6.375C7 5.06332 8.04467 4 9.33333 4H32.6667C33.9553 4 35 5.06332 35 6.375V20.625C35 21.9367 33.9553 23 32.6667 23H14" stroke="black" stroke-width="2" stroke-linecap="round" stroke-linejoin="round"/>
<path d="M28 23C28 25.2091 25.9107 27 23.3333 27H14" stroke="black" stroke-width="2" stroke-linecap="round" stroke-linejoin="round"/>
<path d="M24 11H35" stroke="black" stroke-width="2" stroke-linecap="round" stroke-linejoin="round"/>
<path d="M26 16H31" stroke="black" stroke-width="2" stroke-linecap="round" stroke-linejoin="round"/>
</svg>
