<svg width="24" height="25" viewBox="0 0 24 25" fill="none" xmlns="http://www.w3.org/2000/svg">
<path fill-rule="evenodd" clip-rule="evenodd" d="M12.3618 22.3058L12.3715 22.3127C14.112 23.4208 16.3887 23.1708 17.8471 21.7113L18.4621 21.0963C18.7374 20.8212 18.892 20.448 18.892 20.0589C18.892 19.6697 18.7374 19.2965 18.4621 19.0214L15.8681 16.4294C15.593 16.1541 15.2198 15.9994 14.8307 15.9994C14.4415 15.9994 14.0683 16.1541 13.7932 16.4294V16.4294C13.2205 17.0019 12.2921 17.0019 11.7194 16.4294L7.57163 12.2806C6.99907 11.7079 6.99907 10.7795 7.57163 10.2068V10.2068C7.84689 9.93169 8.00154 9.5585 8.00154 9.16935C8.00154 8.7802 7.84689 8.40701 7.57163 8.13193L4.97857 5.53983C4.40583 4.96727 3.47743 4.96727 2.9047 5.53983L2.2887 6.15486C0.829551 7.61354 0.57993 9.89022 1.68834 11.6304L1.69421 11.6402C4.53581 15.8444 8.15701 19.465 12.3618 22.3058V22.3058Z" stroke="black" stroke-width="2" stroke-linecap="round" stroke-linejoin="round"/>
<path d="M11.2667 8.33334C13.6967 8.33334 15.6667 10.3033 15.6667 12.7333" stroke="black" stroke-width="2" stroke-linecap="round" stroke-linejoin="round"/>
<path d="M11.2667 4.66666C15.7218 4.66666 19.3333 8.27823 19.3333 12.7333" stroke="black" stroke-width="2" stroke-linecap="round" stroke-linejoin="round"/>
<path d="M11.2667 1C17.7468 1 23 6.2532 23 12.7333" stroke="black" stroke-width="2" stroke-linecap="round" stroke-linejoin="round"/>
</svg>
