<svg width="24" height="24" viewBox="0 0 24 24" fill="none" xmlns="http://www.w3.org/2000/svg">
<path fill-rule="evenodd" clip-rule="evenodd" d="M14.9725 22.1467L14.9842 22.1536C17.1236 23.5155 19.922 23.2086 21.7153 21.4155L22.4721 20.6587C23.176 19.9541 23.176 18.8126 22.4721 18.108L19.2835 14.9218C18.5788 14.2181 17.4372 14.2181 16.7325 14.9218V14.9218C16.3945 15.2602 15.9358 15.4503 15.4574 15.4503C14.9791 15.4503 14.5204 15.2602 14.1824 14.9218L9.08029 9.81937C8.37646 9.11475 8.37646 7.97327 9.08029 7.26865V7.26865C9.41872 6.93068 9.60889 6.47204 9.60889 5.99377C9.60889 5.51551 9.41872 5.05687 9.08029 4.7189L5.89269 1.5278C5.18797 0.824065 4.04634 0.824065 3.34163 1.5278L2.58482 2.28452C0.791826 4.07769 0.484559 6.87525 1.84561 9.01476L1.85343 9.02649C5.34748 14.1982 9.8009 18.652 14.9725 22.1467V22.1467Z" stroke="black" stroke-width="2" stroke-linecap="round" stroke-linejoin="round"/>
</svg>
