<svg width="36" height="36" viewBox="0 0 36 36" fill="none" xmlns="http://www.w3.org/2000/svg">
<path d="M35 13C35 15.2091 33.2091 17 31 17" stroke="black" stroke-width="2" stroke-linecap="round" stroke-linejoin="round"/>
<path d="M12 11.4036C14.8358 9.53213 18.1642 9.53213 21 11.4036" stroke="black" stroke-width="2" stroke-linecap="round" stroke-linejoin="round"/>
<path d="M9.5625 15.5C9.25184 15.5 9 15.7518 9 16.0625C9 16.3732 9.25184 16.625 9.5625 16.625C9.87316 16.625 10.125 16.3732 10.125 16.0625C10.125 15.7518 9.87316 15.5 9.5625 15.5" stroke="black" stroke-width="1.5" stroke-linecap="round" stroke-linejoin="round"/>
<path fill-rule="evenodd" clip-rule="evenodd" d="M12 6.28154C10.1938 3.00923 5.61538 3 5.61538 3L6.57846 9.74462C5.31912 11.117 4.38522 12.7555 3.84615 14.5385H1V23.7692H4.83077C5.62745 25.1661 6.6759 26.4034 7.92308 27.4185V31.8462C7.92308 32.4834 8.43967 33 9.07692 33H11.3846C12.0219 33 12.5385 32.4834 12.5385 31.8462V29.9369C15.533 30.9383 18.7711 30.9442 21.7692 29.9538V31.8462C21.7692 32.4834 22.2858 33 22.9231 33H25.2308C25.868 33 26.3846 32.4834 26.3846 31.8462V27.4415C29.2673 25.1507 30.9629 21.6819 31 18C31 8.00923 20.1538 3.55538 12 6.28154Z" stroke="black" stroke-width="2" stroke-linecap="round" stroke-linejoin="round"/>
</svg>
