<svg width="24" height="24" viewBox="0 0 24 24" fill="none" xmlns="http://www.w3.org/2000/svg">
<path fill-rule="evenodd" clip-rule="evenodd" d="M4.73923 9.01569C4.33919 9.2504 4.07059 9.65732 4.012 10.1174C3.95341 10.5775 4.11147 11.0387 4.43992 11.3662L12.634 19.5601C12.9614 19.8885 13.4227 20.0466 13.8828 19.988C14.3429 19.9294 14.7498 19.6608 14.9845 19.2608C15.9551 17.591 16.2446 15.6114 15.7927 13.7337L22.3066 9.58835C22.6896 9.34476 22.9413 8.9405 22.991 8.48933C23.0407 8.03816 22.8829 7.58883 22.562 7.26777L16.7325 1.43837C16.4116 1.11742 15.9623 0.959461 15.5111 1.00892C15.06 1.05838 14.6556 1.30992 14.4119 1.69278L10.2664 8.20758C8.38869 7.7557 6.40901 8.04514 4.73923 9.01569Z" stroke="black" stroke-width="2" stroke-linecap="round" stroke-linejoin="round"/>
<path d="M8 16L1 23" stroke="black" stroke-width="2" stroke-linecap="round" stroke-linejoin="round"/>
</svg>
