<svg width="24" height="24" viewBox="0 0 24 24" fill="none" xmlns="http://www.w3.org/2000/svg">
<path d="M0 0H24V24H0V0Z" fill="white"/>
<path d="M14.1213 5.87868C15.2929 7.05026 15.2929 8.94974 14.1213 10.1213C12.9497 11.2929 11.0503 11.2929 9.87868 10.1213C8.70711 8.94974 8.70711 7.05026 9.87868 5.87868C11.0503 4.70711 12.9497 4.70711 14.1213 5.87868Z" stroke="black" stroke-width="2" stroke-linecap="round" stroke-linejoin="round"/>
<path d="M12 1V1C15.866 1 19 4.28317 19 8.33317C19 11.6644 14.2643 20.0174 12.5833 22.672V22.672C12.3696 23.0095 11.9352 23.1016 11.6131 22.8777C11.5351 22.8236 11.4684 22.7536 11.4167 22.672C9.73573 20.0174 5 11.6644 5 8.33317V8.33317C5 4.28317 8.134 1 12 1L12 1Z" stroke="black" stroke-width="2" stroke-linecap="round" stroke-linejoin="round"/>
</svg>
