<svg width="24" height="24" viewBox="0 0 24 24" fill="none" xmlns="http://www.w3.org/2000/svg">
<path d="M19.7782 4.22177C24.074 8.51753 24.074 15.4823 19.7782 19.7781C15.4825 24.0739 8.51765 24.0739 4.22188 19.7781C-0.0738889 15.4823 -0.0738889 8.51753 4.22188 4.22177C8.51765 -0.0740033 15.4825 -0.0740033 19.7782 4.22177" stroke="black" stroke-width="2" stroke-linecap="round" stroke-linejoin="round"/>
<path d="M9 15.613V15.613C9.00077 16.5166 9.73385 17.2484 10.6374 17.2476C11.0326 17.2473 11.4143 17.1039 11.712 16.844L17.25 12L11.712 7.153V7.153C11.0326 6.55819 9.99964 6.62676 9.40483 7.30616C9.14366 7.60447 8.99979 7.98752 8.99999 8.384L9 15.613Z" stroke="black" stroke-width="2" stroke-linecap="round" stroke-linejoin="round"/>
</svg>
