<svg width="24" height="24" viewBox="0 0 24 24" fill="none" xmlns="http://www.w3.org/2000/svg">
<path d="M9 9V9.00057C9 7.34372 10.3432 6.00057 12 6.00057C13.6568 6.00057 15 7.34372 15 9.00057C15 10.2717 14.1989 11.4049 13.0005 11.8288V11.8288C12.4009 12.0408 12.0002 12.6078 12.0005 13.2438V14.25" stroke="black" stroke-width="2" stroke-linecap="round" stroke-linejoin="round"/>
<path d="M12 15.9996C12.6904 15.9996 13.25 16.5592 13.25 17.2496C13.25 17.94 12.6904 18.4996 12 18.4996C11.3096 18.4996 10.75 17.94 10.75 17.2496C10.75 16.5592 11.3096 15.9996 12 15.9996Z" fill="black"/>
<path d="M19.7782 4.22183C24.0739 8.5176 24.0739 15.4824 19.7782 19.7782C15.4824 24.0739 8.5176 24.0739 4.22183 19.7782C-0.0739423 15.4824 -0.0739423 8.5176 4.22183 4.22183C8.5176 -0.0739423 15.4824 -0.0739423 19.7782 4.22183" stroke="black" stroke-width="2"/>
</svg>
