<svg width="24" height="24" viewBox="0 0 24 24" fill="none" xmlns="http://www.w3.org/2000/svg">
<path d="M18.1111 18L19.0529 18C19.5665 18.0027 20.0602 17.8053 20.4253 17.451C20.7905 17.0968 20.9972 16.6148 21 16.1111L21 2.88891C20.9972 2.38519 20.7905 1.90319 20.4253 1.54896C20.0602 1.19472 19.5665 0.997266 19.0529 1.00003L9.94711 1.00003C9.43351 0.997265 8.93983 1.19472 8.57468 1.54896C8.20952 1.90319 8.0028 2.38519 8 2.88891" stroke="black" stroke-width="2" stroke-linecap="round" stroke-linejoin="round"/>
<path fill-rule="evenodd" clip-rule="evenodd" d="M14 6C14.5523 6 15 6.44772 15 7L15 22C15 22.5523 14.5523 23 14 23L4 23C3.44771 23 3 22.5523 3 22L3 7C3 6.44771 3.44772 6 4 6L14 6Z" stroke="black" stroke-width="2" stroke-linecap="round" stroke-linejoin="round"/>
</svg>
