<svg width="24" height="24" viewBox="0 0 24 24" fill="none" xmlns="http://www.w3.org/2000/svg">
<path d="M11.25 7.5L14.25 4.5L11.25 1.5" stroke="black" stroke-width="2" stroke-linecap="round" stroke-linejoin="round"/>
<path d="M20.969 12.75C20.989 12.997 21 13.25 21 13.5V13.5001C21.0009 14.259 20.9054 15.0151 20.716 15.7501" stroke="black" stroke-width="2" stroke-linecap="round" stroke-linejoin="round"/>
<path d="M18.894 7.715L18.894 7.715C19.3827 8.29576 19.7956 8.93622 20.123 9.621" stroke="black" stroke-width="2" stroke-linecap="round" stroke-linejoin="round"/>
<path d="M18.872 19.312C18.712 19.5013 18.5427 19.6853 18.364 19.864V19.864C17.8278 20.4012 17.2257 20.8683 16.572 21.254" stroke="black" stroke-width="2" stroke-linecap="round" stroke-linejoin="round"/>
<path d="M12.75 22.469C12.503 22.489 12.25 22.5 12 22.5V22.5C7.02944 22.5 3 18.4706 3 13.5C3 8.52944 7.02944 4.5 12 4.5H14.25" stroke="black" stroke-width="2" stroke-linecap="round" stroke-linejoin="round"/>
</svg>
