<svg width="24" height="24" viewBox="0 0 24 24" fill="none" xmlns="http://www.w3.org/2000/svg">
<path d="M2.17659 4.12778C2.03195 3.86144 1.97387 3.55447 2.01085 3.25173C2.04783 2.949 2.17793 2.66638 2.38213 2.44516C2.58633 2.22394 2.85393 2.07573 3.14582 2.02219C3.43772 1.96865 3.7386 2.01258 4.0045 2.14757L21.6202 11.3565C21.7345 11.4163 21.8304 11.5075 21.8975 11.62C21.9645 11.7325 22 11.8618 22 11.9938C22 12.1258 21.9645 12.2551 21.8975 12.3676C21.8304 12.4801 21.7345 12.5713 21.6202 12.6312L4.0045 21.8524C3.7386 21.9874 3.43772 22.0313 3.14582 21.9778C2.85393 21.9243 2.58633 21.7761 2.38213 21.5548C2.17793 21.3336 2.04783 21.051 2.01085 20.7483C1.97387 20.4455 2.03195 20.1386 2.17659 19.8722L6.86262 11.9933L2.17659 4.12778Z" stroke="black" stroke-width="2" stroke-linecap="round" stroke-linejoin="round"/>
<path d="M22 11.9932H7.453" stroke="black" stroke-width="2" stroke-linecap="round" stroke-linejoin="round"/>
</svg>
