<svg width="36" height="36" viewBox="0 0 36 36" fill="none" xmlns="http://www.w3.org/2000/svg">
<path fill-rule="evenodd" clip-rule="evenodd" d="M11.0129 13.7329C11.3931 14.1527 11.9331 14.3922 12.4995 14.3922C13.0659 14.3922 13.6058 14.1527 13.986 13.7329L14.9474 12.6595C15.5154 12.0314 16.4171 11.8284 17.1994 12.1527C17.9818 12.4769 18.4756 13.2582 18.4327 14.104L18.3607 15.5362C18.3288 16.1029 18.54 16.6564 18.9414 17.0578C19.3427 17.4592 19.8962 17.6704 20.4629 17.6385L21.895 17.5664C22.7413 17.5225 23.5236 18.0164 23.8477 18.7994C24.1719 19.5825 23.9677 20.4848 23.3379 21.0519L22.2738 22.0134C21.8531 22.3931 21.613 22.9333 21.613 23.5C21.613 24.0667 21.8531 24.6069 22.2738 24.9866L23.3379 25.9481C23.9677 26.5152 24.1719 27.4175 23.8477 28.2006C23.5236 28.9836 22.7413 29.4775 21.895 29.4336L20.4629 29.3615C19.8968 29.3321 19.3449 29.5441 18.9441 29.9449C18.5433 30.3457 18.3312 30.8977 18.3607 31.4638L18.4327 32.896C18.4756 33.7418 17.9818 34.5231 17.1994 34.8473C16.4171 35.1716 15.5154 34.9686 14.9474 34.3405L13.986 33.2671C13.6058 32.8473 13.0659 32.6078 12.4995 32.6078C11.9331 32.6078 11.3931 32.8473 11.0129 33.2671L10.0515 34.3405C9.48348 34.9686 8.5818 35.1716 7.79949 34.8473C7.01717 34.5231 6.52336 33.7418 6.56618 32.896L6.63825 31.4638C6.66671 30.898 6.45438 30.3466 6.0538 29.946C5.65322 29.5454 5.10182 29.333 4.53603 29.3615L3.10389 29.4336C2.25814 29.4764 1.47688 28.9825 1.15266 28.2002C0.828446 27.4178 1.03137 26.5161 1.65948 25.9481L2.72515 24.9866C3.14497 24.6064 3.38445 24.0664 3.38445 23.5C3.38445 22.9336 3.14497 22.3936 2.72515 22.0134L1.65948 21.0519C1.03137 20.4839 0.828446 19.5822 1.15266 18.7998C1.47688 18.0175 2.25814 17.5236 3.10389 17.5664L4.53603 17.6385C5.10209 17.6679 5.65407 17.4559 6.05487 17.0551C6.45567 16.6543 6.66768 16.1023 6.63825 15.5362L6.56618 14.104C6.52336 13.2582 7.01717 12.4769 7.79949 12.1527C8.5818 11.8284 9.48348 12.0314 10.0515 12.6595L11.0129 13.7329Z" stroke="black" stroke-width="2" stroke-linecap="round" stroke-linejoin="round"/>
<path fill-rule="evenodd" clip-rule="evenodd" d="M12.5 26C13.8807 26 15 24.8807 15 23.5C15 22.1193 13.8807 21 12.5 21C11.1193 21 10 22.1193 10 23.5C10 24.8807 11.1193 26 12.5 26Z" stroke="black" stroke-width="2" stroke-linecap="round" stroke-linejoin="round"/>
<path d="M27.957 7.5C27.6464 7.5 27.3945 7.75184 27.3945 8.0625C27.3945 8.37316 27.6464 8.625 27.957 8.625C28.2677 8.625 28.5195 8.37316 28.5195 8.0625C28.5195 7.75184 28.2677 7.5 27.957 7.5V7.5" stroke="black" stroke-width="1.5" stroke-linecap="round" stroke-linejoin="round"/>
<path fill-rule="evenodd" clip-rule="evenodd" d="M31.88 2.64511C32.3008 2.48128 32.7787 2.58167 33.098 2.90099C33.4173 3.2203 33.5177 3.69818 33.3539 4.11899L32.5949 6.07102C32.4147 6.53356 32.5554 7.05957 32.9425 7.37034L34.5743 8.68181C34.9261 8.96433 35.0779 9.42801 34.9612 9.8639C34.8445 10.2998 34.4814 10.6256 34.0354 10.6945L31.9665 11.0148C31.4759 11.0898 31.0906 11.4745 31.0148 11.965L30.6945 14.0354C30.6256 14.4814 30.2998 14.8445 29.8639 14.9612C29.428 15.0779 28.9643 14.9262 28.6818 14.5743L27.3703 12.9426C27.0594 12.5558 26.5339 12.4146 26.071 12.5934L24.1189 13.3524C23.6981 13.5162 23.2202 13.4158 22.9009 13.0965C22.5816 12.7772 22.4812 12.2993 22.6451 11.8785L23.404 9.92649C23.5842 9.46394 23.4435 8.93793 23.0564 8.62716L21.4247 7.31418C21.0735 7.03188 20.9221 6.56884 21.0388 6.13364C21.1555 5.69844 21.5182 5.37322 21.9635 5.30448L24.0324 4.9842C24.5231 4.90808 24.908 4.52313 24.9841 4.03247L25.3044 1.96509C25.3726 1.51905 25.6982 1.15556 26.134 1.03878C26.5699 0.922005 27.0336 1.07404 27.3157 1.42624L28.6286 3.05798C28.9397 3.44466 29.4654 3.5853 29.928 3.40558L31.88 2.64511Z" stroke="black" stroke-width="2" stroke-linecap="round" stroke-linejoin="round"/>
</svg>
