<svg width="24" height="24" viewBox="0 0 24 24" fill="none" xmlns="http://www.w3.org/2000/svg">
<path fill-rule="evenodd" clip-rule="evenodd" d="M3.00009 4.10327V11.5478C3.00013 16.3646 5.80068 20.684 10.045 22.4134L11.0059 22.8045C11.6458 23.0652 12.3543 23.0652 12.9942 22.8045L13.9551 22.4134C18.1994 20.684 21 16.3646 21 11.5478V4.10327C21.0036 3.53105 20.69 3.00979 20.1988 2.7716C17.614 1.57659 14.8202 0.973204 12.0001 1.00091C9.17994 0.973204 6.38608 1.57659 3.80132 2.7716C3.3101 3.00979 2.99648 3.53105 3.00009 4.10327Z" stroke="black" stroke-width="2" stroke-linecap="round" stroke-linejoin="round"/>
<path d="M12.0001 15C12.2025 15 12.3667 15.1641 12.3667 15.3666C12.3667 15.5691 12.2025 15.7333 12.0001 15.7333C11.7976 15.7333 11.6334 15.5691 11.6334 15.3666C11.6334 15.1641 11.7976 15 12.0001 15" stroke="black" stroke-width="2" stroke-linecap="round" stroke-linejoin="round"/>
<path d="M12 12V7" stroke="black" stroke-width="2" stroke-linecap="round" stroke-linejoin="round"/>
</svg>
