<svg width="24" height="24" viewBox="0 0 24 24" fill="none" xmlns="http://www.w3.org/2000/svg">
<path fill-rule="evenodd" clip-rule="evenodd" d="M2.99998 4.10327V11.5478C3.00002 16.3646 5.80056 20.684 10.0449 22.4134L11.0058 22.8045C11.6457 23.0652 12.3542 23.0652 12.9941 22.8045L13.955 22.4134C18.1993 20.684 20.9999 16.3646 20.9999 11.5478V4.10327C21.0035 3.53105 20.6899 3.00979 20.1987 2.7716C17.6139 1.57659 14.8201 0.973204 11.9999 1.00091C9.17982 0.973204 6.38596 1.57659 3.80121 2.7716C3.30999 3.00979 2.99636 3.53105 2.99998 4.10327Z" stroke="black" stroke-width="2" stroke-linecap="round" stroke-linejoin="round"/>
<path d="M16.6153 8.30768L11.1037 13.6326C10.8084 13.9173 10.3304 13.9173 10.0351 13.6326L8.30766 11.9582" stroke="black" stroke-width="2" stroke-linecap="round" stroke-linejoin="round"/>
</svg>
