<svg width="36" height="36" viewBox="0 0 36 36" fill="none" xmlns="http://www.w3.org/2000/svg">
<path d="M9 13V33.9V33.9C9 34.5075 9.50368 35 10.125 35H25.875V35C26.4963 35 27 34.5075 27 33.9V13" stroke="black" stroke-width="2" stroke-linecap="round" stroke-linejoin="round"/>
<path d="M27 20H31.9286C32.5203 20 33 19.4683 33 18.8125V10.5C33 5.25329 29.1624 1 24.4286 1H22.2857C22.2857 3.62335 20.3669 5.75 18 5.75C15.6331 5.75 13.7143 3.62335 13.7143 1H11.5714C6.83756 1 3 5.25329 3 10.5V18.8125C3 19.4683 3.4797 20 4.07143 20H9" stroke="black" stroke-width="2" stroke-linecap="round" stroke-linejoin="round"/>
</svg>
