<svg width="36" height="36" viewBox="0 0 36 36" fill="none" xmlns="http://www.w3.org/2000/svg">
<path fill-rule="evenodd" clip-rule="evenodd" d="M18 35C27.3888 35 35 27.3888 35 18C35 8.61116 27.3888 1 18 1C8.61116 1 1 8.61116 1 18C1 27.3888 8.61116 35 18 35Z" stroke="black" stroke-width="2" stroke-linecap="round" stroke-linejoin="round"/>
<path d="M6 30C7.99104 23.466 14.0818 9.26623 30 6" stroke="black" stroke-width="2" stroke-linecap="round" stroke-linejoin="round"/>
<path d="M5 7C11.7424 9.42141 24.3551 16.0154 27 32" stroke="black" stroke-width="2" stroke-linecap="round" stroke-linejoin="round"/>
<path d="M15.9864 2C16.1584 5.41407 14.6915 8.72175 11.9861 11.0205C9.28058 13.3192 5.61884 14.3692 2 13.8837" stroke="black" stroke-width="2" stroke-linecap="round" stroke-linejoin="round"/>
<path d="M17.9507 35C11.0012 23.2598 24.0207 9.79852 35 17.0417" stroke="black" stroke-width="2" stroke-linecap="round" stroke-linejoin="round"/>
</svg>
