<svg width="36" height="36" viewBox="0 0 36 36" fill="none" xmlns="http://www.w3.org/2000/svg">
<path d="M12.217 27C9.28137 26.0405 6.22007 25.5076 3.12917 25.4181C1.93114 25.353 0.994986 24.3721 1.00002 23.1871V3.24386C0.998505 2.62229 1.25876 2.02808 1.71847 1.60352C2.17818 1.17897 2.79595 0.962295 3.42384 1.00539C12.9801 1.49935 18 4.8675 18 7.44323C18 4.88541 23.6138 1.53815 32.5686 1.01435C33.1978 0.969075 33.8176 1.18477 34.279 1.60957C34.7404 2.03437 35.0017 2.62985 35 3.25282V22.056" stroke="black" stroke-width="2" stroke-linecap="round" stroke-linejoin="round"/>
<path d="M18 7.67102V13.5015" stroke="black" stroke-width="2" stroke-linecap="round" stroke-linejoin="round"/>
<path d="M14.013 9.82198C11.312 8.84665 8.50575 8.19216 5.65198 7.87198" stroke="black" stroke-width="2" stroke-linecap="round" stroke-linejoin="round"/>
<path d="M29.121 13.8315C29.64 13.7475 30.1715 13.67 30.7155 13.599" stroke="black" stroke-width="2" stroke-linecap="round" stroke-linejoin="round"/>
<path d="M14.013 15.5445C11.3098 14.5767 8.50441 13.9224 5.65198 13.5945" stroke="black" stroke-width="2" stroke-linecap="round" stroke-linejoin="round"/>
<path d="M14.0131 21.609C11.2844 20.6385 8.45337 19.9842 5.57556 19.659" stroke="black" stroke-width="2" stroke-linecap="round" stroke-linejoin="round"/>
<path d="M22.35 9.83251C25.08 8.86135 27.9126 8.20706 30.792 7.88251" stroke="black" stroke-width="2" stroke-linecap="round" stroke-linejoin="round"/>
<path d="M34.704 34.8765L34.854 33.1935C35.0588 30.9396 33.5578 28.8844 31.3485 28.3935L25.872 27.177V18.564C25.872 17.0107 24.6128 15.7515 23.0595 15.7515C21.5062 15.7515 20.247 17.0107 20.247 18.564V32.3715L18.0315 30.7095C17.1161 30.0238 15.8358 30.1152 15.027 30.924C14.2183 31.7328 14.1269 33.013 14.8125 33.9285L15.5235 34.8765" stroke="black" stroke-width="2" stroke-linecap="round" stroke-linejoin="round"/>
</svg>
