<svg width="36" height="36" viewBox="0 0 36 36" fill="none" xmlns="http://www.w3.org/2000/svg">
<path fill-rule="evenodd" clip-rule="evenodd" d="M32.625 32.6415C32.625 33.8841 31.6176 34.8915 30.375 34.8915H5.625C4.38236 34.8915 3.375 33.8841 3.375 32.6415V3.39148C3.375 2.14884 4.38236 1.14148 5.625 1.14148H21.5685C22.1648 1.14161 22.7367 1.37845 23.1585 1.79998L31.9665 10.608C32.388 11.0298 32.6249 11.6017 32.625 12.198V32.6415Z" stroke="black" stroke-width="2" stroke-linecap="round" stroke-linejoin="round"/>
<path d="M32.625 12.3915H23.625C22.3824 12.3915 21.375 11.3841 21.375 10.1415V1.14148" stroke="black" stroke-width="2" stroke-linecap="round" stroke-linejoin="round"/>
<path d="M14.5035 14.4285L11.3055 18.6915C11.1097 18.9522 10.8105 19.1151 10.4854 19.1381C10.1602 19.1611 9.84103 19.042 9.6105 18.8115L7.875 17.0775" stroke="black" stroke-width="2" stroke-linecap="round" stroke-linejoin="round"/>
<path d="M14.5035 24.5535L11.3055 28.8165C11.1097 29.0772 10.8105 29.2401 10.4854 29.2631C10.1602 29.2861 9.84103 29.167 9.6105 28.9365L7.875 27.201" stroke="black" stroke-width="2" stroke-linecap="round" stroke-linejoin="round"/>
<path d="M19.125 19.1415H25.875" stroke="black" stroke-width="2" stroke-linecap="round" stroke-linejoin="round"/>
<path d="M19.125 28.1415H25.875" stroke="black" stroke-width="2" stroke-linecap="round" stroke-linejoin="round"/>
</svg>
