<svg width="36" height="36" viewBox="0 0 36 36" fill="none" xmlns="http://www.w3.org/2000/svg">
<path d="M12.375 34.8915H3.375C2.13236 34.8915 1.125 33.8841 1.125 32.6415V3.39148C1.125 2.14884 2.13236 1.14148 3.375 1.14148H19.3185C19.9148 1.14161 20.4867 1.37845 20.9085 1.79998L29.7165 10.608C30.138 11.0298 30.3749 11.6017 30.375 12.198V12.3915" stroke="black" stroke-width="2" stroke-linecap="round" stroke-linejoin="round"/>
<path d="M19.125 1.14148V10.1415C19.125 11.3841 20.1324 12.3915 21.375 12.3915H30.375" stroke="black" stroke-width="2" stroke-linecap="round" stroke-linejoin="round"/>
<path d="M12.2535 14.4285L9.0555 18.6915C8.85974 18.9522 8.56054 19.1151 8.23537 19.1381C7.9102 19.1611 7.59103 19.042 7.3605 18.8115L5.625 17.0775" stroke="black" stroke-width="2" stroke-linecap="round" stroke-linejoin="round"/>
<path d="M12.2535 24.5535L9.0555 28.8165C8.85974 29.0772 8.56054 29.2401 8.23537 29.2631C7.9102 29.2861 7.59103 29.167 7.3605 28.9365L5.625 27.201" stroke="black" stroke-width="2" stroke-linecap="round" stroke-linejoin="round"/>
<path d="M16.875 19.1415H22.5" stroke="black" stroke-width="2" stroke-linecap="round" stroke-linejoin="round"/>
<path fill-rule="evenodd" clip-rule="evenodd" d="M33.9465 22.32L22.5 33.7665L16.875 34.8915L18 29.2665L29.4465 17.82C30.6854 16.5811 32.6941 16.5811 33.933 17.82L33.9465 17.8335C35.1854 19.0724 35.1854 21.0811 33.9465 22.32Z" stroke="black" stroke-width="2" stroke-linecap="round" stroke-linejoin="round"/>
</svg>
