<svg width="36" height="36" viewBox="0 0 36 36" fill="none" xmlns="http://www.w3.org/2000/svg">
<path d="M5 14C4.99998 8.9675 7.86738 4.38707 12.3612 2.2412C16.8549 0.0953249 22.1677 0.769543 26 3.97204" stroke="black" stroke-width="2" stroke-linecap="round" stroke-linejoin="round"/>
<path d="M29.1353 9C29.7088 10.4412 30.0021 11.9749 30 13.5217V22.5652C30 29.4322 24.3178 34.9992 17.3079 35C16.5339 35 15.7614 34.9314 15 34.795" stroke="black" stroke-width="2" stroke-linecap="round" stroke-linejoin="round"/>
<path d="M10 32C6.83025 29.6369 4.99573 26.1129 5.00001 22.3952V19" stroke="black" stroke-width="2" stroke-linecap="round" stroke-linejoin="round"/>
<path d="M23 23V13.7693C23 11.584 21.7962 9.58637 19.8906 8.60911C17.9849 7.63185 15.7045 7.84275 14 9.15388" stroke="black" stroke-width="2" stroke-linecap="round" stroke-linejoin="round"/>
<path d="M12 13V22.2308C12.0016 24.1767 12.9736 25.9908 14.5858 27.0567C16.1979 28.1226 18.2332 28.2968 20 27.5201" stroke="black" stroke-width="2" stroke-linecap="round" stroke-linejoin="round"/>
<path d="M18 15V21" stroke="black" stroke-width="2" stroke-linecap="round" stroke-linejoin="round"/>
</svg>
