<svg width="36" height="36" viewBox="0 0 36 36" fill="none" xmlns="http://www.w3.org/2000/svg">
<path d="M18.103 1C22.7394 1 26.7576 2.63441 30.0545 5.90323C33.3515 9.17204 35 13.1559 35 17.7527C35 18.1613 35 18.4677 34.897 18.8763C34.7939 19.2849 34.7939 19.6935 34.6909 20C34.6909 19.5914 34.5879 19.1828 34.4848 18.8763C34.2788 17.957 33.7636 17.1398 33.0424 16.4247C32.0121 15.4032 30.7758 14.8925 29.2303 14.8925C28.097 14.8925 27.0667 15.1989 26.1394 15.8118C26.0364 15.914 26.0364 15.914 25.9333 16.0161C25.7273 16.1183 25.5212 16.3226 25.4182 16.4247C24.4909 17.3441 23.9758 18.2634 23.7697 19.4892C23.5636 18.2634 23.0485 17.1398 22.0182 16.1183C20.9879 15.0968 19.7515 14.586 18.4121 14.4839C18.2061 14.4839 18.103 14.4839 17.897 14.4839H17.7939C16.5576 14.4839 15.4242 14.7903 14.497 15.5054C14.3939 15.6075 14.2909 15.6075 14.1879 15.7097C13.9818 15.8118 13.7758 16.0161 13.5697 16.2204C12.6424 17.1398 12.0242 18.2634 11.8182 19.4892C11.6121 18.3656 11.097 17.3441 10.2727 16.5269C9.24242 15.5054 7.90303 14.9946 6.46061 14.9946C4.91515 14.9946 3.67879 15.5054 2.64848 16.5269C1.82424 17.4462 1.30909 18.3656 1.10303 19.5914C1.10303 19.4892 1.10303 19.4892 1.10303 19.4892C1.10303 18.9785 1 18.4677 1 17.957C1 13.3602 2.64848 9.37634 5.94545 6.10753C9.44848 2.63441 13.4667 1 18.103 1Z" stroke="black" stroke-width="2" stroke-miterlimit="10" stroke-linecap="round" stroke-linejoin="round"/>
<path d="M9 30.5486C9 31.8514 9.43373 32.8286 10.3012 33.6971C11.1687 34.5657 12.253 35 13.4458 35C14.6386 35 15.7229 34.5657 16.5904 33.6971C17.3494 32.9371 17.6747 32.1771 17.8916 31.2M18 30.7778V15.5" stroke="black" stroke-width="2" stroke-miterlimit="10" stroke-linecap="round" stroke-linejoin="round"/>
</svg>
