<svg width="24" height="24" viewBox="0 0 24 24" fill="none" xmlns="http://www.w3.org/2000/svg">
<path fill-rule="evenodd" clip-rule="evenodd" d="M17.1333 23C20.3734 23 23 20.3734 23 17.1333C23 13.8933 20.3734 11.2667 17.1333 11.2667C13.8933 11.2667 11.2667 13.8933 11.2667 17.1333C11.2667 20.3734 13.8933 23 17.1333 23Z" stroke="black" stroke-width="2" stroke-linecap="round" stroke-linejoin="round"/>
<path d="M17.1333 14.2V20.0667" stroke="black" stroke-width="2" stroke-linecap="round" stroke-linejoin="round"/>
<path d="M14.2 17.1333H20.0667" stroke="black" stroke-width="2" stroke-linecap="round" stroke-linejoin="round"/>
<path d="M1 17.1333C1.00151 14.9171 2.11478 12.8494 3.96412 11.628C5.81347 10.4067 8.15221 10.1946 10.1911 11.0633" stroke="black" stroke-width="2" stroke-linecap="round" stroke-linejoin="round"/>
<path fill-rule="evenodd" clip-rule="evenodd" d="M7.6 9.06667C9.82755 9.06667 11.6333 7.26088 11.6333 5.03333C11.6333 2.80578 9.82755 1 7.6 1C5.37245 1 3.56667 2.80578 3.56667 5.03333C3.56667 7.26088 5.37245 9.06667 7.6 9.06667Z" stroke="black" stroke-width="2" stroke-linecap="round" stroke-linejoin="round"/>
</svg>
