<svg width="24" height="24" viewBox="0 0 24 24" fill="none" xmlns="http://www.w3.org/2000/svg">
<path d="M23 23L1 1" stroke="black" stroke-width="2" stroke-linecap="round" stroke-linejoin="round"/>
<path fill-rule="evenodd" clip-rule="evenodd" d="M12 23C10.38 23 9.06667 21.6867 9.06667 20.0667C9.06667 18.4467 10.38 17.1334 12 17.1334C13.62 17.1334 14.9333 18.4467 14.9333 20.0667C14.9333 21.6867 13.62 23 12 23Z" stroke="black" stroke-width="2" stroke-linecap="round" stroke-linejoin="round"/>
<path d="M6.81779 14.8815C7.45293 14.2463 8.19972 13.7335 9.02072 13.3689" stroke="black" stroke-width="2" stroke-linecap="round" stroke-linejoin="round"/>
<path d="M12.7324 8.35583C15.5866 8.53005 18.2778 9.74487 20.2964 11.7702" stroke="black" stroke-width="2" stroke-linecap="round" stroke-linejoin="round"/>
<path d="M3.70356 11.7702C4.44049 11.0322 5.27239 10.3956 6.17734 9.8772" stroke="black" stroke-width="2" stroke-linecap="round" stroke-linejoin="round"/>
<path d="M9.1136 4.19344C14.1259 3.27984 19.275 4.78992 23 8.26588" stroke="black" stroke-width="2" stroke-linecap="round" stroke-linejoin="round"/>
<path d="M0.999996 8.26584C1.7354 7.57964 2.5335 6.96388 3.38382 6.42664" stroke="black" stroke-width="2" stroke-linecap="round" stroke-linejoin="round"/>
</svg>
